{"title":"Main Krishna Hoon (2013) 1CD DVDRip XviD E-Subs Hindi Movie","uid":8237132,"size":747146756,"categoryP":"video","categoryS":"movies","magnet":"?xt=urn:btih:8788b9af948ee2889fb78143853ef83fd0cef8c9&amp;dn=Main+Krishna+Hoon+%282013%29+1CD+DVDRip+XviD+E-Subs+Hindi+Movie&amp;tr=udp%3A%2F%2Ftracker.openbittorrent.com%3A80&amp;tr=udp%3A%2F%2Fopen.demonii.com%3A1337&amp;tr=udp%3A%2F%2Ftracker.coppersurfer.tk%3A6969&amp;tr=udp%3A%2F%2Fexodus.desync.com%3A6969","seeders":1,"leechers":0,"uploader":"shaan666","files":-1,"time":1362864152,"description":"[B]Main Krishna Hoon (2013)[/B]\n &lt;a href=&quot;\nhttp://www.shotpix.com/images/22087520078568589780.jpg&quot; rel=&quot;nofollow&quot; target=&quot;_NEW&quot;&gt;\nhttp://www.shotpix.com/images/22087520078568589780.jpg&lt;/a&gt;\n\n\n[B]INFO[/B]\n\n[code]Rip Information\n\nFormat                                   : AVI\nFormat/Info                              : Audio Video Interleave\nFile size                                : 702 MiB\nDuration                                 : 2h 2mn\nOverall bit rate                         : 799 Kbps\n\n\n\nVideo\n\nCodec ID                                 : XVID\nCodec ID/Hint                            : XviD\nDuration                                 : 2h 2mn\nBit rate                                 : 662 Kbps\nWidth                                    : 688 pixels\nHeight                                   : 304 pixels\nDisplay aspect ratio                     : 2.25:1\nFrame rate                               : 29.970 fps\nColor space                              : YUV\nChroma subsampling                       : 4:2:0\nBit depth                                : 8 bits\nScan type                                : Progressive\nCompression mode                         : Lossy\nBits/(Pixel*Frame)                       : 0.106\nStream size                              : 582 MiB (83%)\nWriting library                          : XviD 1.2.1 (UTC 2008-12-04)\n\n\n\nAudio\n\nFormat                                   : AC-3\nFormat/Info                              : Audio Coding 3\nMode extension                           : CM (complete main)\nFormat settings, Endianness              : Big\nCodec ID                                 : 2000\nDuration                                 : 2h 2mn\nBit rate mode                            : Constant\nBit rate                                 : 128 Kbps\nChannel(s)                               : 6 channels\nChannel positions                        : Front: L C R, Side: L R, LFE\nSampling rate                            : 48.0 KHz\nBit depth                                : 16 bits\nCompression mode                         : Lossy\nStream size                              : 113 MiB (16%)\nAlignment                                : Aligned on interleaves\nInterleave, duration                     : 64 ms (1.92 video frames)\nInterleave, preload duration             : 192 ms\nTitle                                    : K@rtik[/code]\n\n\n\n[B]SCREEN SHOTS[/B]\n &lt;a href=&quot;\nhttp://www.shotpix.com/images/56623534177349450415.png&quot; rel=&quot;nofollow&quot; target=&quot;_NEW&quot;&gt;\nhttp://www.shotpix.com/images/56623534177349450415.png&lt;/a&gt;\n &lt;a href=&quot;\nhttp://www.shotpix.com/images/79750634625676548525.png&quot; rel=&quot;nofollow&quot; target=&quot;_NEW&quot;&gt;\nhttp://www.shotpix.com/images/79750634625676548525.png&lt;/a&gt;\n &lt;a href=&quot;\nhttp://www.shotpix.com/images/23896439140284576577.png&quot; rel=&quot;nofollow&quot; target=&quot;_NEW&quot;&gt;\nhttp://www.shotpix.com/images/23896439140284576577.png&lt;/a&gt;\n &lt;a href=&quot;\nhttp://www.shotpix.com/images/98547604073406058340.png&quot; rel=&quot;nofollow&quot; target=&quot;_NEW&quot;&gt;\nhttp://www.shotpix.com/images/98547604073406058340.png&lt;/a&gt;\n &lt;a href=&quot;\nhttp://www.shotpix.com/images/24486057117513507328.png&quot; rel=&quot;nofollow&quot; target=&quot;_NEW&quot;&gt;\nhttp://www.shotpix.com/images/24486057117513507328.png&lt;/a&gt;\n &lt;a href=&quot;\nhttp://www.shotpix.com/images/35511348698429665225.png&quot; rel=&quot;nofollow&quot; target=&quot;_NEW&quot;&gt;\nhttp://www.shotpix.com/images/35511348698429665225.png&lt;/a&gt;\n &lt;a href=&quot;\nhttp://www.shotpix.com/images/83270783280585957481.png&quot; rel=&quot;nofollow&quot; target=&quot;_NEW&quot;&gt;\nhttp://www.shotpix.com/images/83270783280585957481.png&lt;/a&gt;\n &lt;a href=&quot;\nhttp://www.shotpix.com/images/00971313729840239414.png&quot; rel=&quot;nofollow&quot; target=&quot;_NEW&quot;&gt;\nhttp://www.shotpix.com/images/00971313729840239414.png&lt;/a&gt;\n &lt;a href=&quot;\nhttp://www.shotpix.com/images/06729296546123318159.png&quot; rel=&quot;nofollow&quot; target=&quot;_NEW&quot;&gt;\nhttp://www.shotpix.com/images/06729296546123318159.png&lt;/a&gt;\n &lt;a href=&quot;\nhttp://www.shotpix.com/images/77421840797750638539.png&quot; rel=&quot;nofollow&quot; target=&quot;_NEW&quot;&gt;\nhttp://www.shotpix.com/images/77421840797750638539.png&lt;/a&gt;","torrent":{"xt":"urn:btih:8788b9af948ee2889fb78143853ef83fd0cef8c9","amp;dn":"Main+Krishna+Hoon+%282013%29+1CD+DVDRip+XviD+E-Subs+Hindi+Movie","amp;tr":["udp%3A%2F%2Ftracker.openbittorrent.com%3A80","udp%3A%2F%2Fopen.demonii.com%3A1337","udp%3A%2F%2Ftracker.coppersurfer.tk%3A6969","udp%3A%2F%2Fexodus.desync.com%3A6969"],"infoHash":"8788b9af948ee2889fb78143853ef83fd0cef8c9","infoHashBuffer":{"type":"Buffer","data":[135,136,185,175,148,142,226,136,159,183,129,67,133,62,248,63,208,206,248,201]},"announce":[],"urlList":[]}}